<svg width="102" height="104" viewBox="0 0 102 104" fill="none" xmlns="http://www.w3.org/2000/svg">
  <path d="M52.1 8.6665C43.5294 8.6665 35.1514 11.208 28.0252 15.9695C20.8991 20.731 15.345 27.4988 12.0652 35.4169C8.78538 43.335 7.92723 52.0479 9.59926 60.4538C11.2713 68.8596 15.3984 76.5809 21.4587 82.6411C27.5189 88.7014 35.2402 92.8285 43.646 94.5005C52.0519 96.1726 60.7648 95.3144 68.6829 92.0346C76.601 88.7548 83.3688 83.2007 88.1303 76.0745C92.8918 68.9484 95.4333 60.5704 95.4333 51.9998C95.4333 46.3092 94.3124 40.6743 92.1347 35.4169C89.957 30.1594 86.7651 25.3824 82.7412 21.3585C78.7174 17.3347 73.9404 14.1428 68.6829 11.9651C63.4255 9.78735 57.7906 8.6665 52.1 8.6665ZM52.1 86.6665C45.2435 86.6665 38.5411 84.6333 32.8402 80.8241C27.1393 77.0149 22.696 71.6007 20.0721 65.2662C17.4483 58.9317 16.7618 51.9614 18.0994 45.2367C19.437 38.512 22.7387 32.335 27.5869 27.4868C32.4351 22.6386 38.6122 19.3369 45.3368 17.9993C52.0615 16.6617 59.0318 17.3482 65.3663 19.972C71.7008 22.5959 77.115 27.0392 80.9242 32.7401C84.7335 38.441 86.7666 45.1434 86.7666 51.9998C86.7666 61.194 83.1143 70.0116 76.613 76.5129C70.1117 83.0141 61.2941 86.6665 52.1 86.6665Z" fill="#DBE4E6" />
  <path d="M52.1 73.6667C54.4932 73.6667 56.4333 71.7266 56.4333 69.3333C56.4333 66.9401 54.4932 65 52.1 65C49.7068 65 47.7667 66.9401 47.7667 69.3333C47.7667 71.7266 49.7068 73.6667 52.1 73.6667Z" fill="#DBE4E6" />
  <path d="M52.1 30.3335C50.9507 30.3335 49.8485 30.79 49.0359 31.6027C48.2232 32.4154 47.7667 33.5176 47.7667 34.6668V56.3335C47.7667 57.4828 48.2232 58.585 49.0359 59.3976C49.8485 60.2103 50.9507 60.6668 52.1 60.6668C53.2493 60.6668 54.3515 60.2103 55.1641 59.3976C55.9768 58.585 56.4333 57.4828 56.4333 56.3335V34.6668C56.4333 33.5176 55.9768 32.4154 55.1641 31.6027C54.3515 30.79 53.2493 30.3335 52.1 30.3335Z" fill="#DBE4E6" />
</svg>