<svg width="104" height="104" viewBox="0 0 104 104" fill="none" xmlns="http://www.w3.org/2000/svg">
  <path d="M42.2252 49.2961C41.4092 48.4801 40.3025 48.0217 39.1485 48.0217C37.9946 48.0217 36.8879 48.4801 36.0719 49.2961C35.2559 50.112 34.7975 51.2188 34.7975 52.3727C34.7975 53.5267 35.2559 54.6334 36.0719 55.4494L49.0719 68.4494C49.4768 68.851 49.957 69.1688 50.485 69.3844C51.0129 69.6001 51.5783 69.7094 52.1486 69.7061C52.7418 69.6872 53.3248 69.5468 53.8615 69.2933C54.3982 69.0399 54.8771 68.6789 55.2686 68.2327L85.6019 33.5661C86.3023 32.6965 86.64 31.5901 86.5446 30.4776C86.4492 29.3651 85.928 28.3324 85.0898 27.5948C84.2516 26.8571 83.161 26.4715 82.0454 26.5183C80.9298 26.5652 79.8754 27.0408 79.1019 27.8461L52.1486 59.0461L42.2252 49.2961Z" fill="#00A184"/>
  <path d="M91.1506 48.0458C90.0013 48.0458 88.8991 48.5023 88.0865 49.315C87.2738 50.1276 86.8173 51.2298 86.8173 52.3791C86.8173 61.5733 83.1649 70.3909 76.6636 76.8922C70.1624 83.3934 61.3448 87.0458 52.1506 87.0458C45.3043 87.0426 38.6122 85.0124 32.9182 81.2111C27.2242 77.4098 22.7833 72.0076 20.1553 65.6858C17.5274 59.3639 16.8302 52.4055 18.1516 45.688C19.4731 38.9704 22.754 32.7945 27.5806 27.9391C30.7903 24.6864 34.6165 22.1066 38.8354 20.3506C43.0542 18.5946 47.5809 17.6978 52.1506 17.7124C54.9215 17.7298 57.6823 18.0495 60.3839 18.6658C60.9493 18.8406 61.5445 18.8979 62.1328 18.8339C62.7211 18.7699 63.2901 18.5862 63.8046 18.2939C64.3192 18.0016 64.7685 17.607 65.1247 17.1345C65.4809 16.6619 65.7366 16.1214 65.8759 15.5463C66.0153 14.9711 66.0353 14.3735 65.9349 13.7903C65.8344 13.2071 65.6156 12.6507 65.2918 12.1553C64.9681 11.66 64.5463 11.2362 64.0525 10.91C63.5587 10.5839 63.0033 10.3624 62.4206 10.2591C59.0542 9.46716 55.6088 9.06011 52.1506 9.04578C43.5894 9.09025 35.2332 11.6697 28.1365 16.4586C21.0399 21.2475 15.5208 28.0312 12.2758 35.9537C9.03076 43.8762 8.20522 52.5824 9.90335 60.9737C11.6015 69.3649 15.7472 77.065 21.8173 83.1024C29.8629 91.1518 40.7698 95.6859 52.1506 95.7124C63.6433 95.7124 74.6653 91.147 82.7919 83.0204C90.9185 74.8938 95.4839 63.8718 95.4839 52.3791C95.4839 51.2298 95.0274 50.1276 94.2147 49.315C93.4021 48.5023 92.2999 48.0458 91.1506 48.0458Z" fill="#00A184"/>
</svg>
